<mxfile host="app.diagrams.net" agent="Mozilla/5.0 (Macintosh; Intel Mac OS X 10_15_7) AppleWebKit/605.1.15 (KHTML, like Gecko) Version/18.3.1 Safari/605.1.15" version="26.2.4">
  <diagram name="Page-1" id="e9K4EezFEQ3Ixj1OuFnv">
    <mxGraphModel dx="1456" dy="965" grid="1" gridSize="10" guides="1" tooltips="1" connect="1" arrows="1" fold="1" page="1" pageScale="1" pageWidth="827" pageHeight="1169" math="0" shadow="0">
      <root>
        <mxCell id="0" />
        <mxCell id="1" parent="0" />
        <mxCell id="Oap4Wcnsz5DNeIfneKaF-1" value="" style="endArrow=none;html=1;rounded=0;" edge="1" parent="1">
          <mxGeometry width="50" height="50" relative="1" as="geometry">
            <mxPoint x="160" y="640" as="sourcePoint" />
            <mxPoint x="160" y="160" as="targetPoint" />
          </mxGeometry>
        </mxCell>
        <mxCell id="Oap4Wcnsz5DNeIfneKaF-2" value="" style="endArrow=none;html=1;rounded=0;" edge="1" parent="1">
          <mxGeometry width="50" height="50" relative="1" as="geometry">
            <mxPoint x="401" y="640" as="sourcePoint" />
            <mxPoint x="401" y="160" as="targetPoint" />
          </mxGeometry>
        </mxCell>
        <mxCell id="Oap4Wcnsz5DNeIfneKaF-3" value="" style="endArrow=classic;html=1;rounded=0;" edge="1" parent="1">
          <mxGeometry width="50" height="50" relative="1" as="geometry">
            <mxPoint x="160" y="200" as="sourcePoint" />
            <mxPoint x="400" y="200" as="targetPoint" />
          </mxGeometry>
        </mxCell>
        <mxCell id="Oap4Wcnsz5DNeIfneKaF-5" value="&lt;font style=&quot;font-size: 11px;&quot;&gt;CONNECT&lt;/font&gt;" style="text;html=1;align=center;verticalAlign=middle;whiteSpace=wrap;rounded=0;rotation=0;" vertex="1" parent="1">
          <mxGeometry x="211" y="184" width="140" height="12" as="geometry" />
        </mxCell>
        <mxCell id="Oap4Wcnsz5DNeIfneKaF-7" value="" style="endArrow=classic;html=1;rounded=0;" edge="1" parent="1">
          <mxGeometry width="50" height="50" relative="1" as="geometry">
            <mxPoint x="401" y="360" as="sourcePoint" />
            <mxPoint x="161" y="360" as="targetPoint" />
          </mxGeometry>
        </mxCell>
        <mxCell id="Oap4Wcnsz5DNeIfneKaF-8" value="&lt;font style=&quot;font-size: 11px;&quot;&gt;PUBLISH&lt;/font&gt;" style="text;html=1;align=center;verticalAlign=middle;whiteSpace=wrap;rounded=0;" vertex="1" parent="1">
          <mxGeometry x="235.5" y="340" width="91" height="20" as="geometry" />
        </mxCell>
        <mxCell id="Oap4Wcnsz5DNeIfneKaF-17" value="" style="endArrow=classic;html=1;rounded=0;" edge="1" parent="1">
          <mxGeometry width="50" height="50" relative="1" as="geometry">
            <mxPoint x="160" y="580" as="sourcePoint" />
            <mxPoint x="160" y="600" as="targetPoint" />
            <Array as="points">
              <mxPoint x="120" y="580" />
              <mxPoint x="120" y="600" />
            </Array>
          </mxGeometry>
        </mxCell>
        <mxCell id="Oap4Wcnsz5DNeIfneKaF-18" value="&lt;font style=&quot;font-size: 11px;&quot;&gt;Compute average&lt;/font&gt;" style="text;html=1;align=center;verticalAlign=middle;whiteSpace=wrap;rounded=0;" vertex="1" parent="1">
          <mxGeometry x="66" y="590" width="40" height="10" as="geometry" />
        </mxCell>
        <mxCell id="Oap4Wcnsz5DNeIfneKaF-19" value="..." style="text;html=1;align=center;verticalAlign=middle;whiteSpace=wrap;rounded=0;" vertex="1" parent="1">
          <mxGeometry x="251" y="610" width="60" height="30" as="geometry" />
        </mxCell>
        <mxCell id="Oap4Wcnsz5DNeIfneKaF-20" value="Subscriber (valve)" style="text;html=1;align=center;verticalAlign=middle;whiteSpace=wrap;rounded=0;" vertex="1" parent="1">
          <mxGeometry x="106" y="130" width="112" height="30" as="geometry" />
        </mxCell>
        <mxCell id="Oap4Wcnsz5DNeIfneKaF-21" value="MQTT Broker" style="text;html=1;align=center;verticalAlign=middle;whiteSpace=wrap;rounded=0;" vertex="1" parent="1">
          <mxGeometry x="361" y="130" width="76" height="30" as="geometry" />
        </mxCell>
        <mxCell id="Oap4Wcnsz5DNeIfneKaF-23" value="" style="endArrow=classic;html=1;rounded=0;" edge="1" parent="1">
          <mxGeometry width="50" height="50" relative="1" as="geometry">
            <mxPoint x="160" y="280" as="sourcePoint" />
            <mxPoint x="400" y="280" as="targetPoint" />
          </mxGeometry>
        </mxCell>
        <mxCell id="Oap4Wcnsz5DNeIfneKaF-24" value="&lt;font style=&quot;font-size: 11px;&quot;&gt;SUBSCRIBE&lt;/font&gt;" style="text;html=1;align=center;verticalAlign=middle;whiteSpace=wrap;rounded=0;rotation=0;" vertex="1" parent="1">
          <mxGeometry x="211" y="264" width="140" height="12" as="geometry" />
        </mxCell>
        <mxCell id="Oap4Wcnsz5DNeIfneKaF-25" value="" style="endArrow=classic;html=1;rounded=0;" edge="1" parent="1">
          <mxGeometry width="50" height="50" relative="1" as="geometry">
            <mxPoint x="401" y="400" as="sourcePoint" />
            <mxPoint x="161" y="400" as="targetPoint" />
          </mxGeometry>
        </mxCell>
        <mxCell id="Oap4Wcnsz5DNeIfneKaF-26" value="&lt;font style=&quot;font-size: 11px;&quot;&gt;PUBLISH&lt;/font&gt;" style="text;html=1;align=center;verticalAlign=middle;whiteSpace=wrap;rounded=0;" vertex="1" parent="1">
          <mxGeometry x="235.5" y="380" width="91" height="20" as="geometry" />
        </mxCell>
        <mxCell id="Oap4Wcnsz5DNeIfneKaF-29" value="" style="endArrow=classic;html=1;rounded=0;" edge="1" parent="1">
          <mxGeometry width="50" height="50" relative="1" as="geometry">
            <mxPoint x="401" y="440" as="sourcePoint" />
            <mxPoint x="161" y="440" as="targetPoint" />
          </mxGeometry>
        </mxCell>
        <mxCell id="Oap4Wcnsz5DNeIfneKaF-30" value="&lt;font style=&quot;font-size: 11px;&quot;&gt;PUBLISH&lt;/font&gt;" style="text;html=1;align=center;verticalAlign=middle;whiteSpace=wrap;rounded=0;" vertex="1" parent="1">
          <mxGeometry x="235.5" y="420" width="91" height="20" as="geometry" />
        </mxCell>
        <mxCell id="Oap4Wcnsz5DNeIfneKaF-31" value="" style="endArrow=classic;html=1;rounded=0;" edge="1" parent="1">
          <mxGeometry width="50" height="50" relative="1" as="geometry">
            <mxPoint x="401" y="480" as="sourcePoint" />
            <mxPoint x="161" y="480" as="targetPoint" />
          </mxGeometry>
        </mxCell>
        <mxCell id="Oap4Wcnsz5DNeIfneKaF-32" value="&lt;font style=&quot;font-size: 11px;&quot;&gt;PUBLISH&lt;/font&gt;" style="text;html=1;align=center;verticalAlign=middle;whiteSpace=wrap;rounded=0;" vertex="1" parent="1">
          <mxGeometry x="235.5" y="460" width="91" height="20" as="geometry" />
        </mxCell>
        <mxCell id="Oap4Wcnsz5DNeIfneKaF-33" value="" style="endArrow=classic;html=1;rounded=0;" edge="1" parent="1">
          <mxGeometry width="50" height="50" relative="1" as="geometry">
            <mxPoint x="401" y="520" as="sourcePoint" />
            <mxPoint x="161" y="520" as="targetPoint" />
          </mxGeometry>
        </mxCell>
        <mxCell id="Oap4Wcnsz5DNeIfneKaF-34" value="&lt;font style=&quot;font-size: 11px;&quot;&gt;PUBLISH&lt;/font&gt;" style="text;html=1;align=center;verticalAlign=middle;whiteSpace=wrap;rounded=0;" vertex="1" parent="1">
          <mxGeometry x="235.5" y="500" width="91" height="20" as="geometry" />
        </mxCell>
        <mxCell id="Oap4Wcnsz5DNeIfneKaF-35" value="" style="endArrow=classic;html=1;rounded=0;" edge="1" parent="1">
          <mxGeometry width="50" height="50" relative="1" as="geometry">
            <mxPoint x="401" y="559" as="sourcePoint" />
            <mxPoint x="161" y="559" as="targetPoint" />
          </mxGeometry>
        </mxCell>
        <mxCell id="Oap4Wcnsz5DNeIfneKaF-36" value="&lt;font style=&quot;font-size: 11px;&quot;&gt;PUBLISH&lt;/font&gt;" style="text;html=1;align=center;verticalAlign=middle;whiteSpace=wrap;rounded=0;" vertex="1" parent="1">
          <mxGeometry x="235.5" y="540" width="91" height="20" as="geometry" />
        </mxCell>
        <mxCell id="Oap4Wcnsz5DNeIfneKaF-60" value="" style="endArrow=none;html=1;rounded=0;" edge="1" parent="1">
          <mxGeometry width="50" height="50" relative="1" as="geometry">
            <mxPoint x="601" y="560" as="sourcePoint" />
            <mxPoint x="601" y="160" as="targetPoint" />
          </mxGeometry>
        </mxCell>
        <mxCell id="Oap4Wcnsz5DNeIfneKaF-61" value="" style="endArrow=none;html=1;rounded=0;" edge="1" parent="1">
          <mxGeometry width="50" height="50" relative="1" as="geometry">
            <mxPoint x="841" y="560" as="sourcePoint" />
            <mxPoint x="841" y="160" as="targetPoint" />
          </mxGeometry>
        </mxCell>
        <mxCell id="Oap4Wcnsz5DNeIfneKaF-62" value="" style="endArrow=classic;html=1;rounded=0;" edge="1" parent="1">
          <mxGeometry width="50" height="50" relative="1" as="geometry">
            <mxPoint x="601" y="200" as="sourcePoint" />
            <mxPoint x="841" y="200" as="targetPoint" />
          </mxGeometry>
        </mxCell>
        <mxCell id="Oap4Wcnsz5DNeIfneKaF-63" value="&lt;font style=&quot;font-size: 11px;&quot;&gt;CONNECT&lt;/font&gt;" style="text;html=1;align=center;verticalAlign=middle;whiteSpace=wrap;rounded=0;rotation=0;" vertex="1" parent="1">
          <mxGeometry x="652" y="184" width="140" height="12" as="geometry" />
        </mxCell>
        <mxCell id="Oap4Wcnsz5DNeIfneKaF-68" value="..." style="text;html=1;align=center;verticalAlign=middle;whiteSpace=wrap;rounded=0;" vertex="1" parent="1">
          <mxGeometry x="692" y="410" width="60" height="30" as="geometry" />
        </mxCell>
        <mxCell id="Oap4Wcnsz5DNeIfneKaF-69" value="Publisher (temperature sensor)" style="text;html=1;align=center;verticalAlign=middle;whiteSpace=wrap;rounded=0;" vertex="1" parent="1">
          <mxGeometry x="509" y="130" width="183" height="30" as="geometry" />
        </mxCell>
        <mxCell id="Oap4Wcnsz5DNeIfneKaF-70" value="MQTT Broker" style="text;html=1;align=center;verticalAlign=middle;whiteSpace=wrap;rounded=0;" vertex="1" parent="1">
          <mxGeometry x="802" y="130" width="76" height="30" as="geometry" />
        </mxCell>
        <mxCell id="Oap4Wcnsz5DNeIfneKaF-71" value="" style="endArrow=classic;html=1;rounded=0;" edge="1" parent="1">
          <mxGeometry width="50" height="50" relative="1" as="geometry">
            <mxPoint x="601" y="280" as="sourcePoint" />
            <mxPoint x="841" y="280" as="targetPoint" />
          </mxGeometry>
        </mxCell>
        <mxCell id="Oap4Wcnsz5DNeIfneKaF-72" value="&lt;font style=&quot;font-size: 11px;&quot;&gt;PUBLISH&lt;/font&gt;" style="text;html=1;align=center;verticalAlign=middle;whiteSpace=wrap;rounded=0;rotation=0;" vertex="1" parent="1">
          <mxGeometry x="652" y="264" width="140" height="12" as="geometry" />
        </mxCell>
        <mxCell id="Oap4Wcnsz5DNeIfneKaF-83" value="" style="endArrow=classic;html=1;rounded=0;" edge="1" parent="1">
          <mxGeometry width="50" height="50" relative="1" as="geometry">
            <mxPoint x="601" y="320.44" as="sourcePoint" />
            <mxPoint x="841" y="320.44" as="targetPoint" />
          </mxGeometry>
        </mxCell>
        <mxCell id="Oap4Wcnsz5DNeIfneKaF-84" value="&lt;font style=&quot;font-size: 11px;&quot;&gt;PUBLISH&lt;/font&gt;" style="text;html=1;align=center;verticalAlign=middle;whiteSpace=wrap;rounded=0;rotation=0;" vertex="1" parent="1">
          <mxGeometry x="652" y="304.44" width="140" height="12" as="geometry" />
        </mxCell>
        <mxCell id="Oap4Wcnsz5DNeIfneKaF-85" value="" style="endArrow=classic;html=1;rounded=0;" edge="1" parent="1">
          <mxGeometry width="50" height="50" relative="1" as="geometry">
            <mxPoint x="601" y="359.68" as="sourcePoint" />
            <mxPoint x="841" y="359.68" as="targetPoint" />
          </mxGeometry>
        </mxCell>
        <mxCell id="Oap4Wcnsz5DNeIfneKaF-86" value="&lt;font style=&quot;font-size: 11px;&quot;&gt;PUBLISH&lt;/font&gt;" style="text;html=1;align=center;verticalAlign=middle;whiteSpace=wrap;rounded=0;rotation=0;" vertex="1" parent="1">
          <mxGeometry x="652" y="343.68" width="140" height="12" as="geometry" />
        </mxCell>
        <mxCell id="Oap4Wcnsz5DNeIfneKaF-87" value="" style="endArrow=classic;html=1;rounded=0;" edge="1" parent="1">
          <mxGeometry width="50" height="50" relative="1" as="geometry">
            <mxPoint x="401" y="239.88" as="sourcePoint" />
            <mxPoint x="161" y="239.88" as="targetPoint" />
          </mxGeometry>
        </mxCell>
        <mxCell id="Oap4Wcnsz5DNeIfneKaF-88" value="&lt;font style=&quot;font-size: 11px;&quot;&gt;CONNACK&lt;/font&gt;" style="text;html=1;align=center;verticalAlign=middle;whiteSpace=wrap;rounded=0;" vertex="1" parent="1">
          <mxGeometry x="235.5" y="219.88" width="91" height="20" as="geometry" />
        </mxCell>
        <mxCell id="Oap4Wcnsz5DNeIfneKaF-89" value="" style="endArrow=classic;html=1;rounded=0;" edge="1" parent="1">
          <mxGeometry width="50" height="50" relative="1" as="geometry">
            <mxPoint x="401" y="319.48" as="sourcePoint" />
            <mxPoint x="161" y="319.48" as="targetPoint" />
          </mxGeometry>
        </mxCell>
        <mxCell id="Oap4Wcnsz5DNeIfneKaF-90" value="&lt;font style=&quot;font-size: 11px;&quot;&gt;SUBACK&lt;/font&gt;" style="text;html=1;align=center;verticalAlign=middle;whiteSpace=wrap;rounded=0;" vertex="1" parent="1">
          <mxGeometry x="235.5" y="299.48" width="91" height="20" as="geometry" />
        </mxCell>
        <mxCell id="Oap4Wcnsz5DNeIfneKaF-91" value="" style="endArrow=classic;html=1;rounded=0;" edge="1" parent="1">
          <mxGeometry width="50" height="50" relative="1" as="geometry">
            <mxPoint x="841" y="239.88" as="sourcePoint" />
            <mxPoint x="601" y="239.88" as="targetPoint" />
          </mxGeometry>
        </mxCell>
        <mxCell id="Oap4Wcnsz5DNeIfneKaF-92" value="&lt;font style=&quot;font-size: 11px;&quot;&gt;CONNACK&lt;/font&gt;" style="text;html=1;align=center;verticalAlign=middle;whiteSpace=wrap;rounded=0;" vertex="1" parent="1">
          <mxGeometry x="676.5" y="219.88" width="91" height="20" as="geometry" />
        </mxCell>
      </root>
    </mxGraphModel>
  </diagram>
</mxfile>
